<mxfile host="app.diagrams.net" modified="2023-06-28T08:16:04.429Z" agent="Mozilla/5.0 (Windows NT 10.0; Win64; x64) AppleWebKit/537.36 (KHTML, like Gecko) Chrome/114.0.0.0 Safari/537.36" version="21.5.0" etag="1_E-ANyn_NIXueOHO4aW" type="github">
  <diagram name="第 1 页" id="ZkNnlc5FroFU9Lfq0fOx">
    <mxGraphModel>
      <root>
        <mxCell id="0" />
        <mxCell id="1" parent="0" />
      </root>
    </mxGraphModel>
  </diagram>
</mxfile>
